<?xml version="1.0" encoding="UTF-8"?>
<!DOCTYPE svg  PUBLIC '-//W3C//DTD SVG 1.1//EN'  'http://www.w3.org/Graphics/SVG/1.1/DTD/svg11.dtd'>
<svg enable-background="new 0 0 594 842" version="1.1" viewBox="0 0 594 842" xml:space="preserve" xmlns="http://www.w3.org/2000/svg">
	<path d="m292.6 26.96c28.02-1.86 56.86-1.43 83.69 7.78 8.72 3.23 18.3 7.49 22.58 16.33 2.95 5.57 1.46 12.56-2.46 17.26-4.13 5.05-9.74 8.61-15.31 11.84-18.53 9.56-39.54 12.32-60.06 13.95-18.03 0.39-36.15 0.56-54.04-2.12-11.77-1.46-23.51-4.32-34.1-9.77-5.54-2.91-10.57-7.26-13.14-13.07-2.92-6.77-1.55-14.93 2.88-20.73 5.06-6.69 12.96-10.39 20.63-13.23 15.86-5.48 32.74-6.69 49.33-8.24m-14.13 8.69c-11.86 1.29-23.96 4.1-33.95 10.92-3.71 2.93-7.96 6.41-8.4 11.48-0.32 4.22 3.29 7.18 6.41 9.36 6.63 4.07 14.24 6.13 21.67 8.2 12.74 3.12 25.78 4.9 38.84 5.91 15.22 0.43 30.51-0.4 45.51-3.07 9.02-1.68 18.12-4.09 25.99-8.95 4.17-2.79 7.9-7.23 7.79-12.5-0.02-5.48-3.99-10.17-8.72-12.51-12.5-6.44-26.8-7.76-40.6-8.76-18.15-0.78-36.41-2.13-54.54-0.08z"/>
	<path d="m167.72 70.75c2.96-1.31 6.72-0.83 9.16 1.34 6.41 5.22 10.67 12.53 14.4 19.79 3.06 5.88 6.11 11.83 7.83 18.27 0.82 3.1 3 7 6.83 6.08 24.6-3.34 49.27-6.6 74.11-7.39 21.65-0.95 43.33 0.05 64.99 0.51 15.36 0.82 30.78 2.58 45.6 6.89 8.69 2.32 17.11 5.86 24.6 10.86 6.37-16.87 13.35-34.48 26.88-46.99 3.03-2.75 7.31-5.89 11.56-3.95 4.38 2.88 5.3 8.52 6.3 13.27 3.09 22.25-0.6 44.78 1.81 67.07 3.43 29.31 4.15 58.82 5.06 88.28 24.77-6.66 48.3-17.35 70.66-29.81 0.51 1.05 1.05 2.09 1.62 3.12-6.98 4.65-14.47 8.45-21.93 12.24-8.7 4.81-18.34 7.45-27.33 11.63-8.06 3.72-17.17 6.42-23.28 13.22 21.14-1.49 41.98-5.68 62.52-10.76 2.65-0.69 5.35-1.18 8.08-1.51-0.11 0.52-0.31 1.58-0.41 2.1-9.38 2.13-18.51 5.26-27.99 6.92-9.55 1.81-19.12 3.66-28.37 6.68-5.06 1.82-10.7 3.65-13.6 8.56 26.04 1.01 52.11 0.69 78.16-0.16-0.01 0.56-0.03 1.66-0.04 2.22-12.69 0.09-25.29 1.97-37.96 2.62-11.91 1.25-23.93 1.51-35.8 3.04-3.83 0.54-3.25 5.21-3.43 8.06 0.48 32.36 2.44 64.68 4.83 96.96 4.16 56.91 9.16 113.75 13.56 170.64 0.95 17.69 1.93 35.47 0.03 53.14 17.81 0.03 35.9 4.96 50.13 15.93 13.43 9.93 23.08 24.66 27.39 40.75 3.96 13.98 4.59 29.17 0.03 43.09-5.7 18.74-18.91 34.25-33.91 46.39-16.9 13.64-36.33 23.94-56.64 31.48-40.1 15.24-82.42 23.83-124.84 29.52-32.23 4.57-64.82 6.3-97.36 5.82-14.55-0.47-29.73-2.46-42.32-10.29-9.1-5.84-15.91-15.57-16.89-26.49-0.55-7.3 2.92-15.04 9.32-18.83 8.53-5.34 19.14-5.52 28.83-4.37 18.33 2.4 35.07 11.51 53.56 13.16 18.85 1.57 37.77-0.42 56.49-2.63 23.07-3.31 45.86-8.28 68.7-12.88 25.01-5.35 50.02-11.63 73.34-22.35 14.84-7.06 30.26-15.23 39.57-29.33 9.11-13.02 11.58-30.27 6.93-45.41-2.46-9.18-9.86-16.84-18.92-19.7-9.35-3.11-19.32-3.15-29.07-3.13-2.8 4.51-5.17 9.37-8.66 13.42-6.3 4.94-14.2 7.24-21.8 9.37-20.68 6.04-42.18 8.22-63.49 10.79-38.34 4.46-76.99 5.31-115.57 4.86-34.36 0.11-69.09-1.53-102.49-10.26-10.87-2.92-22.02-7.99-28.41-17.71-7.08-10.9-8.58-24.23-9.26-36.91-2.33-39.2 5.53-77.97 7.49-117.01 1.1-28.36 3.48-56.66 5.44-84.97 2.43-35.64 1.2-71.41 2.6-107.09 0.53-7.62 1.78-15.3 0.7-22.92-0.44-2.28-1.06-5.47-3.86-5.8-21.52-4.4-43.46-6.17-65.09-9.89-18.99-3.57-38.3-8.15-54.82-18.55-0.14-0.49-0.43-1.48-0.57-1.97 3.61 0.61 6.98 2.06 10.44 3.15 37.01 11.92 75.98 15.14 114.22 20.92-2.56-2.41-5.86-3.76-8.98-5.26-8.04-3.58-16.48-6.14-24.72-9.19-8.39-3.14-17.13-5.22-25.44-8.55-20.54-8.45-41.25-17.03-59.91-29.19-0.16-0.48-0.47-1.44-0.63-1.92 3.2 0.48 5.91 2.3 8.79 3.62 32.4 15.62 66.98 25.91 101.12 36.94 3.25 0.93 6.43 2.19 9.8 2.68-1.75-3.55-5.05-5.94-8.24-8.1-13.33-8.88-28.03-15.4-42.15-22.88-16.25-9.74-33.36-18.6-47.18-31.79-1.09-0.9-1.71-2.17-2.19-3.46 0.69 0.21 2.06 0.62 2.74 0.83 29.91 22.72 64 38.98 97.69 55.21 0.77-24.5 3.34-48.95 7.46-73.11 2.4-13.8 5.21-27.62 5.41-41.67 0.29-13.91-2.81-27.82-0.79-41.71 0.7-5.7701 2.46-12.14 7.56-15.55m68.83 90.3c-15.49 1.04-31.04 10.09-37.15 24.79-6.56 16.15-4.38 36.78 8.56 49.21 17.03 16.22 46.55 16.59 64.11 1.04 9.15-7.91 13.34-20.23 13.31-32.09-0.13-10.66-3.43-21.68-11.01-29.45-9.63-9.98-24.12-14.75-37.82-13.5m123.74-0.06c-12.07 1.23-24.09 6.94-31.41 16.82-7.59 9.86-9.41 23.19-7.33 35.2 1.48 9.71 6.8 18.79 14.62 24.75 19.7 15.28 52.24 12.24 66.87-8.64 11.09-16.81 9.61-41.78-5.1-56.03-9.93-9.39-24.18-13.5-37.65-12.1m-59.9 81.58c-2.62 0.79-4.75 3.45-4.18 6.26 0.7 3.6 3.73 7.55 7.79 7 5.43 0.46 10.55-5.79 8.07-10.94-2.53-3.57-7.91-3.55-11.68-2.32m-11.74 44.57c6.47-1.81 12.35-5.55 16.31-11.03 4.45 5.73 11.52 8.31 18.36 9.84-8.5-4.63-16.13-12.06-17.95-21.93-2.12 9.66-9.47 16.92-16.72 23.12m39.1 102.52c-5.42 8.22-5.31 18.79-3.15 28.07 3.84 15.63 12.31 29.53 20.49 43.2 2.65 4.24 4.62 9.07 8.45 12.43 2.1 2.14 5.85 2.1 8.03 0.09 11.85-8.92 22.38-19.49 32.19-30.58 8.08-9.59 16.84-20.05 18.49-32.91 1.64-10.49-9.6-20.17-19.71-17.3-11.11 3.01-19.01 11.98-26.08 20.51-3-6.47-7.14-12.41-12.01-17.61-4.44-4.56-9.45-9.27-15.89-10.59-4.12-1.08-8.68 1.06-10.81 4.69m-148.69 43.38c5.5 16.16 10.37 32.63 17.89 48 5.98 12.82 14.03 24.91 24.81 34.19 6.17 6 14.87 8.71 23.32 9.09 6.59 0.16 14.03-1.53 18.22-7.05 4.26-5.89 3.62-13.82 1.24-20.32-3.91-11.55-12.34-20.61-18.85-30.68-6-9.58-10.08-20.28-12.55-31.28 1.95 15.91 8.87 30.84 18.18 43.75 5.23 8.1 10.89 16.52 12.3 26.26 0.88 5.22-1.47 10.94-6.19 13.53-6.35 3.67-14.14 4.12-21.2 2.65-11.98-3.31-20.67-13.14-27.39-23.09-6.95-10.58-12.48-22.04-17.2-33.78-4.72-10.21-7.58-21.19-12.58-31.27m205.67 38.77c-10.08 4.48-21.73 5.44-30.83 12.11-3.69 2.75-5.83 7.5-5.2 12.09 1.02 6.73 4.26 13.33 9.82 17.44 5.21 4.11 11.98 5.41 18.47 5.47 18.33-0.76 35.43-9.3 50.01-19.93 7.36-5.86 14.92-12.33 18.89-21.04-5.2 4.77-9.86 10.15-15.49 14.47-13.87 10.91-29.71 20.47-47.51 22.8-7.09 1-14.81 0.77-21.12-2.99-5.15-3.35-8.39-9.24-9.34-15.22-0.7-4.71 2.14-9.14 5.84-11.79 7.33-5.24 16.47-6.66 24.5-10.45 16.2-7.25 26.94-22.5 35.05-37.7-9.59 12.74-18.46 27.19-33.09 34.74m-117.32 145.09c9.77 0.5099 19.94-0.31 29.24 3.37 3.96 1.28 7.17 4.33 11.33 5.04 4.16-0.85 7.24-4.38 11.44-5.23 8.64-1.42 17.15 1.29 25.65 2.5-7.11-3.16-14.31-6.53-22.08-7.64-5.46-0.64-9.39 3.84-13 7.2-5.69-2.29-11.14-5.21-17-7.09-8.43-1.84-17.54-1.18-25.58 1.85z"/>
	<path d="m244.38 169.44c5.4-1.84 12.13-0.07 15.19 4.94 3.58 5.33 2.92 13.03-1.56 17.64-5.29 5.81-16.05 4.79-20.08-1.97-4.73-6.91-1.79-18 6.45-20.61z"/>
	<path d="m342.5 169.8c6.66-3.46 16.04-0.33 18.48 6.98 1.47 5.04 1.25 11.49-2.99 15.2-5.67 6.35-17.48 4.68-21.06-3.08-2.94-6.44-1.53-16.03 5.57-19.1z"/>
	<path d="m85.6 296.65c2.99-3.6 7.92-4.86 12.43-4.54 16.55 0.51 31.68 8.27 45.56 16.63-0.9 27.78-0.08 55.6-2.11 83.34-10.81 0.25-21.54 3.98-32.36 2.16-10.48-2.07-20.62-7.76-26.56-16.83-4.25-6.64-4.23-15.86 0.69-22.14 2.27-2.74 4.72-5.42 7.68-7.42 5.26-3.01 11.17-5.07 15.74-9.17 1.39-0.98 1.04-2.78 1.27-4.23-8.22-7.9-19.29-13.58-24.01-24.49-1.49-4.28-1.7-9.83 1.67-13.31z"/>
	<path d="m498.51 306.12c7.29-1.71 15.48-2.45 22.38 1.02 6.02 3.15 6.88 11.28 4.24 16.96-3.92 8.88-12.75 14.1-17.99 22.07 5.09 5.76 14.21 3.19 20.23 7.43 4.02 2.6 7.7 6.26 8.9 11.05 1.66 6.06-0.96 12.28-4.26 17.3-5.15 7.45-12.15 13.49-19.78 18.3-9.1 6.18-20.37 9.22-31.33 8.51-2.85-0.13-4.13-3.17-4.22-5.64-1.2-16.33-2.61-32.64-3.69-48.98-0.98-11.28-1.92-22.6-1.83-33.94 7.65-6.88 17.39-11.48 27.35-14.08z"/>
</svg>
