<?xml version="1.0" encoding="UTF-8" standalone="no"?>
<!-- Created with Inkscape (http://www.inkscape.org/) -->

<svg
   xmlns:dc="http://purl.org/dc/elements/1.1/"
   xmlns:cc="http://creativecommons.org/ns#"
   xmlns:rdf="http://www.w3.org/1999/02/22-rdf-syntax-ns#"
   xmlns:svg="http://www.w3.org/2000/svg"
   xmlns="http://www.w3.org/2000/svg"
   xmlns:sodipodi="http://sodipodi.sourceforge.net/DTD/sodipodi-0.dtd"
   xmlns:inkscape="http://www.inkscape.org/namespaces/inkscape"
   width="54.356174mm"
   height="8.7940445mm"
   viewBox="0 0 54.356174 8.7940445"
   version="1.1"
   id="svg8"
   inkscape:version="0.92.2 (5c3e80d, 2017-08-06)"
   sodipodi:docname="logo.svg">
  <defs
     id="defs2" />
  <sodipodi:namedview
     id="base"
     pagecolor="#ffffff"
     bordercolor="#666666"
     borderopacity="1.0"
     inkscape:pageopacity="0.0"
     inkscape:pageshadow="2"
     inkscape:zoom="1.4"
     inkscape:cx="108.05327"
     inkscape:cy="-100.07024"
     inkscape:document-units="mm"
     inkscape:current-layer="layer1"
     showgrid="false"
     inkscape:window-width="1920"
     inkscape:window-height="1017"
     inkscape:window-x="1912"
     inkscape:window-y="-8"
     inkscape:window-maximized="1" />
  <metadata
     id="metadata5">
    <rdf:RDF>
      <cc:Work
         rdf:about="">
        <dc:format>image/svg+xml</dc:format>
        <dc:type
           rdf:resource="http://purl.org/dc/dcmitype/StillImage" />
        <dc:title></dc:title>
      </cc:Work>
    </rdf:RDF>
  </metadata>
  <g
     inkscape:label="Layer 1"
     inkscape:groupmode="layer"
     id="layer1"
     transform="translate(-20.094881,-86.83377)">
    <g
       aria-label="Cats-a-gram"
       transform="scale(0.26458333)"
       style="font-style:normal;font-variant:normal;font-weight:normal;font-stretch:normal;font-size:18.66666603px;line-height:1.25;font-family:sans-serif;-inkscape-font-specification:'sans-serif, Normal';font-variant-ligatures:normal;font-variant-caps:normal;font-variant-numeric:normal;font-feature-settings:normal;text-align:start;letter-spacing:0px;word-spacing:0px;writing-mode:lr-tb;text-anchor:start;fill:#000000;fill-opacity:1;stroke:none"
       id="flowRoot815">
      <path
         d="m 92.503823,351.23063 q -1.024,2.34667 -2.304,4.096 -1.237333,1.70667 -2.645333,2.90134 -1.365333,1.152 -2.773333,1.70666 -1.408,0.55467 -2.730667,0.55467 -1.322667,0 -2.432,-0.59733 -1.066667,-0.59734 -1.877334,-1.792 -0.810666,-1.19467 -1.322666,-2.944 -0.469334,-1.74934 -0.469334,-4.09601 0,-4.01066 1.109334,-7.89333 1.109333,-3.92533 3.114666,-7.04 2.005334,-3.11467 4.736001,-4.992 2.773333,-1.92 6.101333,-1.92 1.024,0 1.962667,0.42667 0.938667,0.42666 1.621333,1.19466 0.682667,0.768 1.066667,1.87734 0.426667,1.10933 0.426667,2.47466 0,0.256 0,0.55467 0,0.256 -0.04267,0.55467 l -5.589334,1.49333 q -0.512,-1.06667 -1.194666,-1.06667 -0.682667,0 -1.450667,0.81067 -0.725333,0.768 -1.450667,2.048 -0.725333,1.23733 -1.408,2.816 -0.682666,1.536 -1.194666,3.11467 -0.512,1.57866 -0.853334,3.02933 -0.298667,1.408 -0.298667,2.304 0,1.36533 0.341334,1.92 0.384,0.55467 0.981333,0.55467 0.469334,0 1.066667,-0.34133 0.597333,-0.38401 1.109333,-0.93867 0.512,-0.59734 0.938667,-1.32267 0.426667,-0.72533 0.597333,-1.45067 z"
         style="font-style:normal;font-variant:normal;font-weight:normal;font-stretch:normal;font-size:42.66666794px;font-family:Bangers;-inkscape-font-specification:'Bangers, Normal';font-variant-ligatures:normal;font-variant-caps:normal;font-variant-numeric:normal;font-feature-settings:normal;text-align:start;writing-mode:lr-tb;text-anchor:start"
         id="path823" />
      <path
         d="m 107.65316,359.55063 q -1.06667,0.17067 -2.34667,0.384 -1.28,0.21334 -2.304,0.384 0.17067,-1.408 0.34133,-2.77333 0.128,-1.19467 0.21334,-2.38933 0.128,-1.19467 0.21333,-2.048 h -3.712 l -1.706666,6.144 q -0.938666,0.128 -2.218666,0.29866 -1.28,0.128 -2.389334,0.256 -1.365333,0.17067 -2.688,0.34134 1.706667,-5.67467 3.370667,-11.17867 0.682667,-2.304 1.408,-4.82134 0.768,-2.51733 1.493333,-4.992 0.768,-2.51733 1.450667,-4.82133 0.682667,-2.304 1.194667,-4.224 2.901332,-0.21333 5.888002,-0.512 3.02933,-0.29867 5.888,-0.81067 -0.128,1.36534 -0.29867,3.41334 -0.128,2.00533 -0.256,4.39466 -0.128,2.38934 -0.256,4.992 -0.128,2.60267 -0.256,5.12 -0.21333,5.888 -0.46933,12.50134 -1.28,0.21333 -2.56,0.34133 z m -6.57067,-10.70933 q 0.17067,0 0.59733,0 0.46934,-0.0427 0.93867,-0.0427 0.512,-0.0427 0.93867,-0.0427 0.42666,-0.0427 0.59733,-0.0853 0,-0.256 0.0427,-0.85333 0.0853,-0.64 0.128,-1.408 0.0853,-0.81067 0.17066,-1.74934 0.0853,-0.93866 0.17067,-1.83466 0.17067,-2.176 0.42667,-4.69334 l 0.256,-3.712 -0.64,0.0427 -0.98134,3.66933 z"
         style="font-style:normal;font-variant:normal;font-weight:normal;font-stretch:normal;font-size:42.66666794px;font-family:Bangers;-inkscape-font-specification:'Bangers, Normal';font-variant-ligatures:normal;font-variant-caps:normal;font-variant-numeric:normal;font-feature-settings:normal;text-align:start;writing-mode:lr-tb;text-anchor:start"
         id="path825" />
      <path
         d="m 114.29182,360.44663 q 0.98134,-4.69333 1.87734,-9.25867 0.384,-1.92 0.768,-4.01066 0.384,-2.09067 0.72533,-4.096 0.384,-2.048 0.64,-3.92534 0.29867,-1.92 0.512,-3.49866 -0.98133,-0.128 -2.00533,-0.0853 -0.98134,0.0427 -1.96267,-0.256 0.0427,-0.68266 0.0427,-1.57866 0,-0.896 0.0427,-1.792 0.0427,-0.98134 0.0853,-2.09067 1.10933,0.0853 2.21866,0.128 1.10934,0.0427 2.21867,0.0427 2.176,0 4.18133,-0.0853 2.048,-0.128 3.75467,-0.256 1.74933,-0.17066 3.41333,-0.384 l -0.46933,2.304 q -0.21333,0.98134 -0.42667,2.00534 -0.17066,1.024 -0.34133,1.74933 -0.93867,0.256 -1.92,0.384 -0.93867,0.0853 -1.87733,0.256 -0.29867,1.45067 -0.64,3.24267 -0.34134,1.74933 -0.68267,3.66933 -0.29867,1.87733 -0.59733,3.84 -0.29867,1.96267 -0.59734,3.75467 -0.68266,4.224 -1.28,8.74667 z"
         style="font-style:normal;font-variant:normal;font-weight:normal;font-stretch:normal;font-size:42.66666794px;font-family:Bangers;-inkscape-font-specification:'Bangers, Normal';font-variant-ligatures:normal;font-variant-caps:normal;font-variant-numeric:normal;font-feature-settings:normal;text-align:start;writing-mode:lr-tb;text-anchor:start"
         id="path827" />
      <path
         d="m 144.76983,349.8653 q 0,2.38933 -0.93867,4.352 -0.896,1.92 -2.47467,3.328 -1.536,1.408 -3.66933,2.176 -2.09067,0.768 -4.52267,0.768 -1.70666,0 -3.41333,-0.896 -1.70667,-0.93867 -3.28533,-2.944 l 3.15733,-6.18667 q 0.29867,0.55467 0.896,1.152 0.59733,0.55467 1.32267,0.98133 0.768,0.42667 1.49333,0.72534 0.768,0.256 1.36533,0.256 0.512,0 1.06667,-0.17067 0.55467,-0.17066 1.024,-0.512 0.46933,-0.34133 0.72533,-0.768 0.29867,-0.46933 0.29867,-1.06667 0,-1.024 -0.68267,-1.87733 -0.64,-0.896 -1.62133,-1.664 -0.98133,-0.81067 -2.13333,-1.62133 -1.152,-0.81067 -2.13334,-1.70667 -0.93866,-0.896 -1.62133,-2.00533 -0.68267,-1.10934 -0.68267,-2.47467 0,-2.21867 1.32267,-4.13867 1.32267,-1.92 3.28533,-3.28533 2.00534,-1.408 4.352,-2.21867 2.34667,-0.81066 4.43734,-0.81066 1.152,0 2.176,0.29866 1.024,0.256 1.74933,0.896 0.768,0.59734 1.19467,1.536 0.46933,0.93867 0.46933,2.34667 0,0.59733 -0.128,1.19467 -0.0853,0.59733 -0.17067,1.28 l -6.18666,1.792 q 0.0853,-0.34134 0.128,-0.68267 0.0853,-0.34133 0.0853,-0.68267 0,-1.28 -0.46933,-1.83466 -0.42667,-0.59734 -1.152,-0.59734 -0.34134,0 -0.85334,0.256 -0.46933,0.256 -0.98133,0.68267 -0.46933,0.384 -0.81067,0.93867 -0.34133,0.55466 -0.34133,1.19466 0,1.024 0.55467,1.70667 0.59733,0.68267 1.45066,1.28 0.85334,0.59733 1.83467,1.23733 1.024,0.59734 1.87733,1.57867 0.85334,0.98133 1.408,2.47467 0.59734,1.45066 0.59734,3.712 z"
         style="font-style:normal;font-variant:normal;font-weight:normal;font-stretch:normal;font-size:42.66666794px;font-family:Bangers;-inkscape-font-specification:'Bangers, Normal';font-variant-ligatures:normal;font-variant-caps:normal;font-variant-numeric:normal;font-feature-settings:normal;text-align:start;writing-mode:lr-tb;text-anchor:start"
         id="path829" />
      <path
         d="m 159.77516,350.2493 q -1.49333,-0.0427 -2.85866,-0.0853 -1.32267,-0.0427 -2.73067,-0.0427 -1.36534,-0.0427 -2.304,-0.0427 -0.768,0 -1.792,0.0427 -0.98134,0 -2.00534,0.0427 -1.024,0.0427 -2.13333,0.0427 l 2.048,-7.552 q 1.152,0.0427 2.176,0.0853 1.06667,0.0427 2.13333,0.0853 1.06667,0 1.792,0 0.896,0 2.13334,0 1.23733,-0.0427 2.432,-0.0853 1.23733,-0.0427 2.56,-0.128 z"
         style="font-style:normal;font-variant:normal;font-weight:normal;font-stretch:normal;font-size:42.66666794px;font-family:Bangers;-inkscape-font-specification:'Bangers, Normal';font-variant-ligatures:normal;font-variant-caps:normal;font-variant-numeric:normal;font-feature-settings:normal;text-align:start;writing-mode:lr-tb;text-anchor:start"
         id="path831" />
      <path
         d="m 175.23649,359.55063 q -1.06667,0.17067 -2.34667,0.384 -1.28,0.21334 -2.304,0.384 0.17067,-1.408 0.34134,-2.77333 0.128,-1.19467 0.21333,-2.38933 0.128,-1.19467 0.21333,-2.048 h -3.712 l -1.70666,6.144 q -0.93867,0.128 -2.21867,0.29866 -1.28,0.128 -2.38933,0.256 -1.36534,0.17067 -2.688,0.34134 1.70666,-5.67467 3.37066,-11.17867 0.68267,-2.304 1.408,-4.82134 0.768,-2.51733 1.49334,-4.992 0.768,-2.51733 1.45066,-4.82133 0.68267,-2.304 1.19467,-4.224 2.90133,-0.21333 5.888,-0.512 3.02933,-0.29867 5.888,-0.81067 -0.128,1.36534 -0.29867,3.41334 -0.128,2.00533 -0.256,4.39466 -0.128,2.38934 -0.256,4.992 -0.128,2.60267 -0.256,5.12 -0.21333,5.888 -0.46933,12.50134 -1.28,0.21333 -2.56,0.34133 z m -6.57067,-10.70933 q 0.17067,0 0.59734,0 0.46933,-0.0427 0.93866,-0.0427 0.512,-0.0427 0.93867,-0.0427 0.42667,-0.0427 0.59733,-0.0853 0,-0.256 0.0427,-0.85333 0.0853,-0.64 0.128,-1.408 0.0853,-0.81067 0.17067,-1.74934 0.0853,-0.93866 0.17066,-1.83466 0.17067,-2.176 0.42667,-4.69334 l 0.256,-3.712 -0.64,0.0427 -0.98133,3.66933 z"
         style="font-style:normal;font-variant:normal;font-weight:normal;font-stretch:normal;font-size:42.66666794px;font-family:Bangers;-inkscape-font-specification:'Bangers, Normal';font-variant-ligatures:normal;font-variant-caps:normal;font-variant-numeric:normal;font-feature-settings:normal;text-align:start;writing-mode:lr-tb;text-anchor:start"
         id="path833" />
      <path
         d="m 193.60849,350.2493 q -1.49333,-0.0427 -2.85867,-0.0853 -1.32266,-0.0427 -2.73066,-0.0427 -1.36534,-0.0427 -2.304,-0.0427 -0.768,0 -1.792,0.0427 -0.98134,0 -2.00534,0.0427 -1.024,0.0427 -2.13333,0.0427 l 2.048,-7.552 q 1.152,0.0427 2.176,0.0853 1.06667,0.0427 2.13333,0.0853 1.06667,0 1.792,0 0.896,0 2.13334,0 1.23733,-0.0427 2.432,-0.0853 1.23733,-0.0427 2.56,-0.128 z"
         style="font-style:normal;font-variant:normal;font-weight:normal;font-stretch:normal;font-size:42.66666794px;font-family:Bangers;-inkscape-font-specification:'Bangers, Normal';font-variant-ligatures:normal;font-variant-caps:normal;font-variant-numeric:normal;font-feature-settings:normal;text-align:start;writing-mode:lr-tb;text-anchor:start"
         id="path835" />
      <path
         d="m 216.57916,344.14796 q -0.29867,4.352 -1.70667,7.59467 -1.408,3.2 -3.41333,5.376 -1.96267,2.176 -4.26667,3.24267 -2.26133,1.06667 -4.30933,1.06667 -1.57867,0 -3.02933,-0.68267 -1.408,-0.68267 -2.47467,-2.048 -1.024,-1.408 -1.62133,-3.49867 -0.59734,-2.09066 -0.59734,-4.90667 0,-5.504 1.57867,-9.6 1.57867,-4.096 3.968,-6.82666 2.432,-2.73067 5.16267,-4.05334 2.77333,-1.32266 5.16266,-1.32266 1.70667,0 2.944,0.59733 1.28,0.59733 2.09067,1.62133 0.81067,0.98134 1.152,2.34667 0.384,1.32267 0.384,2.816 l -5.84533,1.10933 q -0.384,-1.70666 -1.024,-2.432 -0.64,-0.72533 -1.45067,-0.72533 -1.06667,0 -2.34667,1.536 -1.28,1.49333 -2.38933,3.88267 -1.10933,2.38933 -1.87733,5.248 -0.768,2.85866 -0.85334,5.632 0,2.64533 0.768,3.79733 0.81067,1.10934 2.048,1.10934 0.85334,0 1.74934,-0.42667 0.93866,-0.42667 1.664,-1.19467 0.72533,-0.81067 1.19466,-1.83467 0.512,-1.06666 0.55467,-2.304 l -4.56533,0.68267 0.81066,-4.224 q 2.00534,-0.256 3.92534,-0.512 1.62133,-0.21333 3.41333,-0.512 1.83467,-0.29867 3.2,-0.55467 z"
         style="font-style:normal;font-variant:normal;font-weight:normal;font-stretch:normal;font-size:42.66666794px;font-family:Bangers;-inkscape-font-specification:'Bangers, Normal';font-variant-ligatures:normal;font-variant-caps:normal;font-variant-numeric:normal;font-feature-settings:normal;text-align:start;writing-mode:lr-tb;text-anchor:start"
         id="path837" />
      <path
         d="m 214.78917,360.44663 q 1.152,-5.67466 2.21866,-11.09333 0.384,-2.304 0.85334,-4.77867 0.46933,-2.51733 0.85333,-4.94933 0.42667,-2.47467 0.768,-4.736 0.384,-2.304 0.59733,-4.18134 2.432,-0.768 5.248,-1.10933 2.816,-0.384 5.58934,-0.384 1.664,0 2.73066,0.384 1.10934,0.384 1.70667,1.10933 0.64,0.68267 0.896,1.62134 0.256,0.93866 0.256,2.09066 0,1.70667 -0.59733,3.37067 -0.59734,1.62133 -1.62134,3.11467 -0.98133,1.45066 -2.304,2.688 -1.28,1.19466 -2.77333,1.96266 0.768,1.70667 1.62133,3.75467 0.896,2.00533 1.664,3.84 0.85334,2.13334 1.74934,4.26667 l -6.61334,2.304 q -0.85333,-2.73067 -1.536,-5.12 -0.29866,-0.98133 -0.59733,-2.00534 -0.29867,-1.06666 -0.55467,-2.00533 -0.256,-0.93867 -0.42666,-1.664 -0.17067,-0.768 -0.21334,-1.23733 l -0.55466,0.17066 q -0.256,1.36534 -0.64,3.2 -0.34134,1.83467 -0.64,3.54134 -0.384,2.00533 -0.768,4.05333 z m 10.02666,-18.51733 q 0.81067,-0.0853 1.96267,-0.68267 1.19467,-0.59733 2.26133,-1.408 1.06667,-0.85333 1.83467,-1.74933 0.768,-0.896 0.768,-1.57867 0,-0.46933 -0.29867,-0.72533 -0.29866,-0.29867 -0.85333,-0.42667 -0.512,-0.17067 -1.152,-0.21333 -0.64,-0.0427 -1.32267,-0.0427 -0.46933,0 -0.98133,0.0427 -0.46933,0 -0.85333,0 z"
         style="font-style:normal;font-variant:normal;font-weight:normal;font-stretch:normal;font-size:42.66666794px;font-family:Bangers;-inkscape-font-specification:'Bangers, Normal';font-variant-ligatures:normal;font-variant-caps:normal;font-variant-numeric:normal;font-feature-settings:normal;text-align:start;writing-mode:lr-tb;text-anchor:start"
         id="path839" />
      <path
         d="m 249.23649,359.55063 q -1.06667,0.17067 -2.34667,0.384 -1.28,0.21334 -2.304,0.384 0.17067,-1.408 0.34134,-2.77333 0.128,-1.19467 0.21333,-2.38933 0.128,-1.19467 0.21333,-2.048 h -3.712 l -1.70666,6.144 q -0.93867,0.128 -2.21867,0.29866 -1.28,0.128 -2.38933,0.256 -1.36534,0.17067 -2.688,0.34134 1.70666,-5.67467 3.37066,-11.17867 0.68267,-2.304 1.408,-4.82134 0.768,-2.51733 1.49334,-4.992 0.768,-2.51733 1.45066,-4.82133 0.68267,-2.304 1.19467,-4.224 2.90133,-0.21333 5.888,-0.512 3.02933,-0.29867 5.888,-0.81067 -0.128,1.36534 -0.29867,3.41334 -0.128,2.00533 -0.256,4.39466 -0.128,2.38934 -0.256,4.992 -0.128,2.60267 -0.256,5.12 -0.21333,5.888 -0.46933,12.50134 -1.28,0.21333 -2.56,0.34133 z m -6.57067,-10.70933 q 0.17067,0 0.59734,0 0.46933,-0.0427 0.93866,-0.0427 0.512,-0.0427 0.93867,-0.0427 0.42667,-0.0427 0.59733,-0.0853 0,-0.256 0.0427,-0.85333 0.0853,-0.64 0.128,-1.408 0.0853,-0.81067 0.17067,-1.74934 0.0853,-0.93866 0.17066,-1.83466 0.17067,-2.176 0.42667,-4.69334 l 0.256,-3.712 -0.64,0.0427 -0.98133,3.66933 z"
         style="font-style:normal;font-variant:normal;font-weight:normal;font-stretch:normal;font-size:42.66666794px;font-family:Bangers;-inkscape-font-specification:'Bangers, Normal';font-variant-ligatures:normal;font-variant-caps:normal;font-variant-numeric:normal;font-feature-settings:normal;text-align:start;writing-mode:lr-tb;text-anchor:start"
         id="path841" />
      <path
         d="m 250.75516,360.14797 q 1.87733,-5.67467 3.584,-11.13601 0.72533,-2.304 1.49333,-4.82133 0.768,-2.51733 1.536,-4.992 0.768,-2.47467 1.408,-4.77867 0.68267,-2.304 1.19467,-4.26666 2.34666,0 4.43733,-0.256 2.09067,-0.256 4.52267,-0.46934 -0.128,0.93867 -0.29867,2.13334 -0.128,1.152 -0.34133,2.432 -0.17067,1.28 -0.384,2.64533 -0.21334,1.36533 -0.512,3.49867 -0.29867,2.13333 -0.81067,5.33333 h 0.55467 q 1.23733,-3.24267 2.048,-5.376 0.81066,-2.176 1.32266,-3.54133 0.512,-1.36534 1.024,-2.64534 0.55467,-1.32266 1.024,-2.47466 0.512,-1.19467 0.93867,-2.09067 1.06667,-0.0853 2.00533,-0.21333 0.93867,-0.128 1.87734,-0.256 0.93866,-0.17067 1.87733,-0.29867 0.98133,-0.17067 2.13333,-0.384 -0.42666,2.47467 -0.81066,5.07733 -0.384,2.60267 -0.68267,5.20534 -0.29867,2.56 -0.59733,5.07733 -0.256,2.51733 -0.46934,4.77867 -0.512,5.29067 -0.896,10.32533 l -7.424,1.32267 q 0,-0.21333 0.0427,-1.152 0.0853,-0.93867 0.17067,-2.304 0.128,-1.36533 0.29866,-3.02933 0.21334,-1.66401 0.384,-3.32801 0.21334,-1.664 0.42667,-3.2 0.21333,-1.57866 0.42667,-2.688 h -0.384 q -0.59734,1.792 -1.32267,3.79734 -0.72533,1.96266 -1.49333,4.01066 -0.72534,2.04801 -1.45067,4.01067 -0.72533,1.96267 -1.28,3.75467 -1.49333,0.0427 -2.56,0.128 -1.06667,0.0427 -2.47467,0.128 l 1.36534,-15.82934 h -0.64 q -0.0853,0.55467 -0.42667,1.87734 -0.34133,1.28 -0.81067,2.98666 -0.42666,1.664 -0.93866,3.49867 -0.512,1.792 -0.98134,3.37067 -0.42666,1.536 -0.72533,2.56 -0.29867,0.98133 -0.34133,1.10933 z"
         style="font-style:normal;font-variant:normal;font-weight:normal;font-stretch:normal;font-size:42.66666794px;font-family:Bangers;-inkscape-font-specification:'Bangers, Normal';font-variant-ligatures:normal;font-variant-caps:normal;font-variant-numeric:normal;font-feature-settings:normal;text-align:start;writing-mode:lr-tb;text-anchor:start"
         id="path843" />
    </g>
  </g>
</svg>
