<svg xmlns="http://www.w3.org/2000/svg" width="252.862" height="53.182" viewBox="0 0 66.903 14.071"  xmlns:v="https://vecta.io/nano"><g transform="matrix(.010914 0 0 .010914 -1.526984 -.191646)"><path d="M566.851 75.382c43.69-2.9 88.66-2.23 130.495 12.131 13.597 5.036 28.534 11.679 35.208 25.463 4.6 8.685 2.277 19.584-3.836 26.913-6.44 7.874-15.187 13.425-23.872 18.462-28.893 14.907-61.653 19.21-93.649 21.752-28.113.608-56.367.873-84.262-3.306-18.352-2.277-36.658-6.736-53.171-15.234-8.638-4.537-16.481-11.32-20.489-20.38-4.553-10.556-2.417-23.28 4.491-32.323 7.89-10.431 20.208-16.201 32.168-20.629 24.73-8.545 51.05-10.431 76.918-12.848m-22.032 13.55c-18.493 2.011-37.36 6.393-52.937 17.027-5.785 4.569-12.412 9.995-13.098 17.9-.499 6.58 5.13 11.195 9.995 14.595 10.338 6.346 22.204 9.558 33.789 12.786 19.865 4.865 40.198 7.64 60.562 9.215 23.732.67 47.573-.624 70.962-4.787 14.065-2.62 28.254-6.377 40.525-13.955 6.502-4.35 12.318-11.273 12.147-19.491-.031-8.545-6.221-15.858-13.597-19.506-19.491-10.042-41.788-12.1-63.306-13.659-28.301-1.216-56.773-3.321-85.042-.125z"/><path d="M372.13 143.662c4.615-2.043 10.478-1.294 14.283 2.089 9.995 8.139 16.637 19.538 22.453 30.858 4.771 9.168 9.527 18.446 12.209 28.488 1.279 4.834 4.678 10.915 10.65 9.48 38.358-5.208 76.825-10.291 115.557-11.523 33.758-1.481 67.563.078 101.336.795 23.95 1.279 47.994 4.023 71.102 10.743 13.55 3.617 26.679 9.137 38.358 16.934 9.932-26.305 20.816-53.763 41.913-73.27 4.725-4.288 11.398-9.184 18.025-6.159 6.83 4.491 8.264 13.285 9.823 20.691 4.818 34.694-.936 69.824 2.822 104.58 5.348 45.702 6.471 91.716 7.89 137.652 38.623-10.385 75.312-27.053 110.177-46.482.795 1.637 1.637 3.259 2.526 4.865-10.884 7.251-22.562 13.176-34.195 19.085-13.566 7.5-28.597 11.616-42.615 18.134-12.568 5.8-26.773 10.01-36.3 20.613 32.963-2.323 65.458-8.857 97.485-16.778 4.132-1.076 8.342-1.84 12.599-2.354l-.639 3.274c-14.626 3.321-28.862 8.202-43.644 10.79-14.891 2.822-29.813 5.707-44.236 10.416-7.89 2.838-16.684 5.691-21.206 13.347 40.603 1.575 81.253 1.076 121.872-.249l-.062 3.462c-19.787.14-39.434 3.072-59.19 4.085-18.571 1.949-37.313 2.354-55.822 4.74-5.972.842-5.068 8.124-5.348 12.568.748 50.458 3.805 100.853 7.531 151.186l21.144 266.072c1.481 27.583 3.009 55.307.047 82.859 27.77.047 55.977 7.734 78.166 24.839 20.941 15.484 35.988 38.451 42.708 63.54 6.175 21.798 7.157 45.484.047 67.188-8.888 29.221-29.486 53.405-52.875 72.334-26.352 21.268-56.648 37.329-88.317 49.085-62.526 23.763-128.514 37.157-194.658 46.029-50.255 7.126-101.071 9.823-151.81 9.075-22.687-.733-46.357-3.836-65.988-16.045-14.189-9.106-24.808-24.278-26.336-41.305-.858-11.383 4.553-23.451 14.532-29.361 13.3-8.326 29.844-8.607 44.953-6.814 28.581 3.742 54.683 17.947 83.514 20.52 29.392 2.448 58.893-.655 88.083-4.101 35.972-5.161 71.508-12.911 107.121-20.083 38.997-8.342 77.994-18.134 114.356-34.849 23.139-11.008 47.183-23.748 61.7-45.733 14.205-20.302 18.056-47.199 10.806-70.806-3.836-14.314-15.374-26.258-29.501-30.717-14.579-4.849-30.125-4.912-45.328-4.88-4.366 7.032-8.061 14.61-13.503 20.925-9.823 7.703-22.141 11.289-33.992 14.61-32.246 9.418-65.77 12.817-98.997 16.824-59.782 6.954-120.047 8.28-180.204 7.578-53.576.172-107.729-2.386-159.809-15.998-16.949-4.553-34.335-12.458-44.299-27.615-11.04-16.996-13.378-37.781-14.439-57.552-3.633-61.123 8.623-121.576 11.679-182.449 1.715-44.221 5.426-88.348 8.482-132.49 3.789-55.572 1.871-111.347 4.054-166.981.826-11.882 2.775-23.857 1.091-35.738-.686-3.555-1.653-8.529-6.019-9.044-33.555-6.861-67.765-9.621-101.492-15.421-29.61-5.567-59.72-12.708-85.479-28.924l-.889-3.072c5.629.951 10.884 3.212 16.279 4.912 57.708 18.586 118.473 23.607 178.099 32.62-3.992-3.758-9.137-5.863-14.002-8.202-12.536-5.582-25.697-9.574-38.545-14.33-13.082-4.896-26.71-8.139-39.668-13.332-32.027-13.176-64.319-26.554-93.415-45.515l-.982-2.994c4.99.748 9.215 3.586 13.706 5.645 50.52 24.356 104.439 40.4 157.672 57.599 5.068 1.45 10.026 3.415 15.281 4.179-2.729-5.535-7.874-9.262-12.848-12.63-20.785-13.846-43.706-24.013-65.723-35.676-25.338-15.187-52.017-29.002-73.566-49.569-1.7-1.403-2.666-3.384-3.415-5.395l4.272 1.294c46.637 35.426 99.793 60.78 152.324 86.087 1.201-38.202 5.208-76.326 11.632-113.998 3.742-21.518 8.124-43.067 8.436-64.974.452-21.689-4.382-43.379-1.232-65.037 1.091-8.997 3.836-18.929 11.788-24.247m107.324 140.801c-24.153 1.622-48.399 15.733-57.927 38.654-10.229 25.182-6.83 57.35 13.347 76.731 26.554 25.291 72.584 25.868 99.964 1.622 14.267-12.334 20.801-31.544 20.754-50.037-.203-16.622-5.348-33.805-17.167-45.92-15.016-15.561-37.609-22.999-58.971-21.05m192.943-.094c-18.82 1.918-37.563 10.821-48.976 26.227-11.835 15.374-14.673 36.159-11.429 54.886 2.308 15.14 10.603 29.299 22.796 38.592 30.717 23.826 81.456 19.085 104.268-13.472 17.292-26.211 14.985-65.146-7.952-87.365-15.483-14.641-37.703-21.05-58.706-18.867m-93.4 127.204c-4.085 1.232-7.406 5.379-6.518 9.761 1.091 5.613 5.816 11.772 12.147 10.915 8.467.717 16.45-9.028 12.583-17.058-3.945-5.567-12.334-5.535-18.212-3.617m-18.306 69.496c10.088-2.822 19.257-8.654 25.432-17.199 6.939 8.935 17.963 12.957 28.628 15.343-13.254-7.219-25.151-18.805-27.989-34.195-3.306 15.062-14.766 26.383-26.071 36.05m60.967 159.855c-8.451 12.817-8.28 29.299-4.912 43.768 5.988 24.371 19.194 46.045 31.949 67.36 4.132 6.611 7.204 14.142 13.176 19.382 3.274 3.337 9.122 3.274 12.521.14 18.477-13.909 34.896-30.39 50.193-47.682 12.599-14.953 26.258-31.263 28.831-51.315 2.557-16.357-14.969-31.45-30.733-26.975-17.323 4.693-29.642 18.68-40.666 31.98-4.678-10.088-11.133-19.35-18.727-27.459-6.923-7.11-14.735-14.454-24.777-16.513-6.424-1.684-13.534 1.653-16.856 7.313m-231.846 67.641c8.576 25.198 16.17 50.879 27.895 74.844 9.324 19.99 21.876 38.841 38.685 53.311 9.621 9.356 23.186 13.581 36.362 14.174 10.276.249 21.876-2.386 28.41-10.993 6.642-9.184 5.645-21.549 1.933-31.684-6.097-18.009-19.241-32.136-29.392-47.838-9.356-14.938-15.717-31.622-19.569-48.774 3.041 24.808 13.831 48.088 28.347 68.218 8.155 12.63 16.98 25.759 19.179 40.946 1.372 8.139-2.292 17.058-9.652 21.097-9.901 5.722-22.048 6.424-33.056 4.132-18.68-5.161-32.23-20.489-42.708-36.003-10.837-16.497-19.46-34.366-26.819-52.672-7.36-15.92-11.819-33.041-19.615-48.758m320.693 60.453c-15.717 6.985-33.883 8.482-48.072 18.883-5.754 4.288-9.09 11.694-8.108 18.851 1.59 10.494 6.642 20.785 15.312 27.194 8.124 6.409 18.68 8.436 28.8 8.529 28.581-1.185 55.245-14.501 77.979-31.076 11.476-9.137 23.264-19.226 29.454-32.807-8.108 7.438-15.374 15.826-24.153 22.562-21.627 17.012-46.326 31.918-74.08 35.551-11.055 1.559-23.093 1.201-32.932-4.662-8.03-5.224-13.082-14.408-14.563-23.732-1.091-7.344 3.337-14.252 9.106-18.384 11.429-8.171 25.681-10.385 38.202-16.294 25.26-11.305 42.006-35.083 54.652-58.784-14.953 19.865-28.784 42.396-51.596 54.169M527.573 995.252c15.234.795 31.092-.483 45.593 5.255 6.175 1.996 11.18 6.752 17.666 7.859 6.487-1.325 11.289-6.83 17.838-8.155 13.472-2.214 26.741 2.011 39.995 3.898-11.086-4.927-22.313-10.182-34.428-11.913-8.514-.998-14.641 5.988-20.27 11.227-8.872-3.571-17.37-8.124-26.507-11.055-13.145-2.869-27.349-1.84-39.886 2.885z"/><path d="M491.663 297.545c8.42-2.869 18.914-.109 23.685 7.703 5.582 8.311 4.553 20.317-2.432 27.505-8.248 9.059-25.026 7.469-31.31-3.072-7.375-10.774-2.791-28.067 10.057-32.136zm152.995.562c10.385-5.395 25.011-.515 28.815 10.884 2.292 7.859 1.949 17.916-4.662 23.701-8.841 9.901-27.256 7.297-32.838-4.803-4.584-10.042-2.386-24.995 8.685-29.782zM244.084 495.899c4.662-5.613 12.349-7.578 19.382-7.079 25.806.795 49.397 12.895 71.04 25.93-1.403 43.316-.125 86.695-3.29 129.949-16.856.39-33.586 6.206-50.458 3.368-16.341-3.228-32.152-12.1-41.414-26.242-6.627-10.353-6.596-24.73 1.076-34.522 3.54-4.272 7.36-8.451 11.975-11.57 8.202-4.693 17.417-7.905 24.543-14.298 2.167-1.528 1.622-4.335 1.98-6.596-12.817-12.318-30.078-21.175-37.438-38.186-2.323-6.674-2.651-15.328 2.604-20.754zm643.834 14.766c11.367-2.666 24.137-3.82 34.896 1.59 9.387 4.912 10.728 17.588 6.611 26.445-6.112 13.846-19.881 21.986-28.051 34.413 7.937 8.981 22.157 4.974 31.544 11.585 6.268 4.054 12.006 9.761 13.877 17.23 2.588 9.449-1.497 19.148-6.642 26.975-8.03 11.616-18.945 21.034-30.842 28.534-14.189 9.636-31.762 14.376-48.852 13.269-4.444-.203-6.44-4.943-6.58-8.794l-5.754-76.373c-1.528-17.588-2.994-35.239-2.853-52.921 11.928-10.728 27.116-17.9 42.646-21.954zm550.501 529.225q-96.197 0-159.295-77.579-63.097-78.613-63.097-204.808 0-126.195 43.444-229.633 43.444-104.473 124.126-169.639 80.682-65.166 171.707-65.166 92.06 0 147.917 41.375 56.891 41.375 56.891 99.301 0 56.891-34.135 97.232-33.1 0-74.475-14.481-41.375-14.481-62.063-35.169l19.653-104.473q-24.825-15.516-65.166-15.516-63.097 0-111.713 108.61-48.616 107.576-48.616 265.836 0 104.473 34.135 152.054 35.169 46.547 84.819 46.547 81.716 0 157.226-76.544l42.41 38.272q-11.378 16.55-41.375 45.513-29.997 28.963-58.96 48.616-28.963 18.619-73.441 34.135-44.478 15.516-89.991 15.516zm625.768-440.647q2.069-2.069 11.378-26.894 48.616 0 130.332 28.963-25.86 85.854-41.375 179.982-15.516 93.094-15.516 133.435 0 39.307 8.275 39.307 6.206 0 45.513-19.653l12.413-6.206 18.619 36.203q-9.309 8.275-24.825 20.688-14.481 12.413-55.857 34.135-41.375 20.688-74.475 20.688-64.132 0-74.475-57.925-66.2 57.925-119.988 57.925-52.753 0-89.991-41.375-36.203-41.375-36.203-130.332 0-138.607 56.891-218.255 56.891-80.682 137.573-80.682 57.925 0 111.713 29.997zm-117.919 352.724q24.825 0 55.857-19.653 7.241-145.848 48.616-288.592-31.031-13.447-52.753-13.447-37.238 0-64.132 73.441-25.86 72.407-25.86 160.329 0 87.922 38.272 87.922zm630.423-370.308q-2.069 25.86-17.584 59.994-39.306-4.138-74.475-4.138h-18.619q-47.582 230.667-47.582 287.558 0 29.997 12.413 29.997 13.447 0 69.304-25.86l18.619 34.135q-92.06 76.544-170.673 76.544-36.203 0-59.994-22.756-22.756-22.756-22.756-59.994 0-38.272 8.275-85.854 9.309-47.582 24.825-115.851 15.516-69.304 22.756-111.713-38.272 3.103-56.891 6.206-2.069-12.413-2.069-33.1 0-21.722 3.103-35.169h65.166q8.275-55.857 8.275-105.507l-1.034-32.066v-3.103q80.682-27.928 152.054-27.928 4.138 20.688 4.138 51.719 0 31.031-17.584 116.885zm300.924 310.314q0 65.166-57.925 106.541-56.891 41.375-130.332 41.375-73.441 0-116.885-31.031-42.41-31.031-42.41-54.822 0-14.481 36.203-46.547 36.203-33.1 61.029-40.341 51.719 38.272 84.819 121.023 38.272-3.103 38.272-36.203 0-47.582-83.785-134.47-83.785-87.922-83.785-139.642 0-51.719 46.547-79.647 46.547-28.963 111.713-28.963 66.201 0 99.301 23.791 33.1 22.756 33.1 63.097 0 39.307-63.097 109.644 7.241 7.241 18.619 19.653 11.378 11.378 29.997 44.478 18.619 33.1 18.619 62.063zm-99.301-162.398q43.444-37.238 43.444-73.441 0-36.203-49.65-36.203-23.791 0-39.307 10.344-15.516 9.309-15.516 21.722 0 22.756 45.513 64.132zm172.193 51.72q0-64.132 3.103-87.922h284.455q0 71.372-3.103 87.922zm665.253-182.052q2.068-2.069 11.378-26.894 48.616 0 130.332 28.963-25.859 85.854-41.375 179.982-15.516 93.094-15.516 133.435 0 39.307 8.275 39.307 6.206 0 45.513-19.653l12.413-6.206 18.619 36.203q-9.309 8.275-24.825 20.688-14.481 12.413-55.857 34.135-41.375 20.688-74.475 20.688-64.132 0-74.475-57.925-66.201 57.925-119.988 57.925-52.753 0-89.991-41.375-36.204-41.375-36.204-130.332 0-138.607 56.891-218.255 56.891-80.682 137.573-80.682 57.925 0 111.713 29.997zm-117.92 352.725q24.825 0 55.857-19.653 7.241-145.848 48.616-288.592-31.031-13.447-52.753-13.447-37.238 0-64.132 73.441-25.86 72.407-25.86 160.329 0 87.922 38.272 87.922zm331.487-170.673q0-64.132 3.103-87.922h284.455q0 71.372-3.103 87.922zm487.339 357.896q-34.135 20.688-34.135 40.341 0 19.653 21.722 19.653 22.756 0 50.685-21.722 27.928-20.688 46.547-68.269-49.65 9.309-84.819 29.997zm307.211-562.704q4.138 4.138 4.138 18.619 0 13.447-2.068 29.997-2.068 15.516-7.241 71.372-5.172 55.857-10.344 97.232-52.753 465.472-283.421 465.472-37.238 0-68.269-19.653-29.997-19.653-29.997-50.685 0-41.375 50.685-75.51 50.685-34.135 136.538-52.753 0-1.034 6.206-28.963 6.206-27.928 8.275-45.513-62.063 45.513-116.885 45.513-53.788 0-88.957-42.41-34.135-42.41-34.135-135.504 0-122.057 54.822-202.739 54.822-81.716 144.813-81.716 50.685 0 100.335 24.825 52.753-18.619 113.782-18.619zm-189.292 53.788q-44.478 0-70.338 72.407-25.86 71.372-25.86 159.295 0 86.888 39.306 86.888 25.86 0 61.029-19.653 28.963-173.776 41.375-286.524-28.963-12.413-45.513-12.413zm251.242 400.306h-7.241q-2.068-8.275-2.068-37.238 0-29.997 27.928-159.295 27.928-129.298 27.928-147.917 0-32.066-28.963-70.338l-9.309-12.413 1.035-13.447q55.857-15.516 178.948-15.516 12.413 26.894 12.413 75.51 11.378-18.619 47.581-49.65 36.204-31.031 74.475-31.031 55.857 0 55.857 97.232-5.172 6.206-14.481 16.55-8.275 9.309-35.169 26.894-25.859 17.584-50.685 21.722-1.035 0-17.585-27.928-16.55-27.928-24.825-27.928-25.859 9.309-45.513 31.031-47.582 214.117-47.582 277.214 0 22.756 1.035 32.066-36.203 14.481-143.779 14.481zm663.33-431.338q2.068-2.069 11.378-26.894 48.616 0 130.332 28.963-25.859 85.854-41.375 179.982-15.516 93.094-15.516 133.435 0 39.307 8.275 39.307 6.206 0 45.513-19.653l12.413-6.206 18.619 36.203q-9.309 8.275-24.825 20.688-14.481 12.413-55.857 34.135-41.375 20.688-74.475 20.688-64.132 0-74.475-57.925-66.201 57.925-119.988 57.925-52.753 0-89.991-41.375-36.204-41.375-36.204-130.332 0-138.607 56.891-218.255 56.891-80.682 137.573-80.682 57.925 0 111.713 29.997zm-117.919 352.724q24.825 0 55.857-19.653 7.241-145.848 48.616-288.592-31.031-13.447-52.753-13.447-37.238 0-64.132 73.441-25.86 72.407-25.86 160.329 0 87.922 38.272 87.922zm334.59 78.614h-19.653q0-48.616 28.963-186.189 29.997-137.573 29.997-156.192 0-34.135-28.963-72.407l-9.309-12.413 1.035-13.447q55.857-15.516 178.948-15.516 14.481 19.653 14.481 64.132 93.094-69.304 147.916-69.304 69.304 0 81.716 71.372 27.928-22.756 72.407-46.547 45.513-24.825 80.682-24.825 36.203 0 59.994 23.791 23.791 22.756 23.791 64.132 0 41.375-22.756 136.538-22.756 95.163-22.756 128.263 0 32.066 9.309 32.066 6.206 0 42.41-19.653l11.378-6.206 18.619 36.203q-26.894 26.894-73.441 51.719-45.513 23.791-80.682 23.791-77.579 0-77.579-87.922 0-32.066 21.722-128.263 22.756-97.232 22.756-126.195 0-29.997-17.585-29.997-29.997 0-68.269 22.756-2.068 20.688-28.963 140.676-25.86 119.988-25.86 186.189-29.997 13.447-140.676 13.447-2.068-11.378-2.068-54.822 0-43.444 23.791-147.917 24.825-104.473 24.825-132.401 0-27.928-19.653-27.928-31.031 0-68.269 24.825-2.068 9.309-20.688 91.026-37.238 163.432-37.238 232.736-36.203 14.481-130.332 14.481z"/></g></svg>